<svg height="512" viewBox="0 0 64 64" width="512" xmlns="http://www.w3.org/2000/svg"><g id="document-paper-law-insurance-insure"><path d="m61 19v22a4 4 0 0 1 -8 0v-22z" fill="#bddbff"/><path d="m45 9v49a3 3 0 0 1 -6 0v-49z" fill="#bddbff"/><path d="m26.82 50.82-5.82 5.18-5.82-5.18a4 4 0 0 1 3.82-2.82h4a4 4 0 0 1 3.82 2.82z" fill="#bddbff"/><path d="m22.21 43h1.79v-2a3 3 0 0 0 -6 0l1.99 1.33a3.993 3.993 0 0 0 2.22.67z" fill="#bddbff"/><g fill="#57a4ff"><path d="m61 18h-7v-5a5 5 0 0 0 -5-5h-9v-3a3.009 3.009 0 0 0 -3-3h-32a3.009 3.009 0 0 0 -3 3v54a3.009 3.009 0 0 0 3 3h32a3.02 3.02 0 0 0 2.29-1.08 3.983 3.983 0 0 0 6.71-2.92v-12h11a5 5 0 0 0 5-5v-22a1 1 0 0 0 -1-1zm-23 41a1 1 0 0 1 -1 1h-32a1 1 0 0 1 -1-1v-54a1 1 0 0 1 1-1h32a1 1 0 0 1 1 1zm6-1a2 2 0 0 1 -4 0v-48h4zm2-14v-34h3a3.009 3.009 0 0 1 3 3v28a4.924 4.924 0 0 0 1.03 3zm14-3a3 3 0 0 1 -6 0v-21h6z"/><path d="m8 8h2v2h-2z"/><path d="m12 8h22v2h-22z"/><path d="m8 14h26v2h-26z"/><path d="m8 20h26v2h-26z"/><path d="m8 26h26v2h-26z"/><path d="m30.406 37.086-9-4a1 1 0 0 0 -.812 0l-9 4a1 1 0 0 0 -.594.914v6.408a9.005 9.005 0 0 0 3.021 6.726l6.314 5.614a1 1 0 0 0 1.33 0l6.314-5.614a9.005 9.005 0 0 0 3.021-6.726v-6.408a1 1 0 0 0 -.594-.914zm-9.406 17.576-4.619-4.106a3.019 3.019 0 0 1 2.619-1.556h4a3.019 3.019 0 0 1 2.619 1.556zm2-12.662h-.789a2.989 2.989 0 0 1 -1.664-.5l-1.479-.986a2 2 0 0 1 3.932.486zm-3.563 1.16a4.992 4.992 0 0 0 2.774.84h.789v1a2 2 0 0 1 -4 0v-2.132zm9.563 1.248a7 7 0 0 1 -1.88 4.766 4.941 4.941 0 0 0 -2.782-1.981 3.968 3.968 0 0 0 .662-2.193v-4a4 4 0 0 0 -8 0v4a3.968 3.968 0 0 0 .662 2.193 4.941 4.941 0 0 0 -2.782 1.981 7 7 0 0 1 -1.88-4.766v-5.758l8-3.556 8 3.556z"/></g></g></svg>