<svg height="512" viewBox="0 0 64 64" width="512" xmlns="http://www.w3.org/2000/svg"><g id="financail-money-payment-pay-hand"><path d="m59 13v5h-38l36.03-4.74z" fill="#bddbff"/><path d="m38 22a9 9 0 0 0 -8.88 7.54 3.685 3.685 0 0 1 .37.32 4.077 4.077 0 0 1 1.11 2.13c.03.23.05.46.06.7a4.067 4.067 0 0 1 -.73 2.29 9 9 0 1 0 8.07-12.98z" fill="#bddbff"/><path d="m5 55h22v6h-22z" fill="#bddbff"/><g fill="#57a4ff"><path d="m61 17h-1v-4a1 1 0 0 0 -1.13-.99l-.87.11v-4.12a.985.985 0 0 0 -.39-.79 1.015 1.015 0 0 0 -.86-.18l-36.68 9.41 3.73-6.46a5.067 5.067 0 0 0 .66-2.49 5 5 0 0 0 -9.33-2.51l-12.45 21.58a4.973 4.973 0 0 0 -.68 2.51v12.37a4.924 4.924 0 0 0 .19 1.37l3.19 11.19h-.38a1 1 0 0 0 -1 1v6a1 1 0 0 0 1 1h22a1 1 0 0 0 1-1v-6a1 1 0 0 0 -1-1v-2.51a7 7 0 0 0 -2.05-4.96l-1.54-1.53h37.59a1 1 0 0 0 1-1v-26a1 1 0 0 0 -1-1zm-3-2.86v2.86h-21.73zm-2-4.85v3.1l-24.81 3.26zm-30 50.71h-20v-4h20zm-5.92-15.62a.914.914 0 0 0 .22.32l-.01.01 3.24 3.24a4.945 4.945 0 0 1 1.47 3.54v2.51h-17.54l-3.35-11.73a3.318 3.318 0 0 1 -.11-.83v-12.37a2.916 2.916 0 0 1 .41-1.5l12.46-21.59a2.975 2.975 0 0 1 4.09-1.09 2.95 2.95 0 0 1 1.5 2.6 3 3 0 0 1 -.4 1.49l-4.63 8.02h-2.43a1 1 0 0 0 -1 1v21a1.016 1.016 0 0 0 .62.93 1 1 0 0 0 1.1-.24l8.82-9.12a3.007 3.007 0 0 1 5.07 1.55c.02.2.04.4.05.56a3.065 3.065 0 0 1 -.88 2.12l-8.49 8.49a1 1 0 0 0 -.21 1.09zm39.92-1.38h-36.59l6.35-6.34a9.9 9.9 0 0 0 8.24 4.34 10 10 0 1 0 -9.54-12.97 5.033 5.033 0 0 0 -5.35 1.14l-7.11 7.36v-17.53h44zm-28.42-11.2a5.026 5.026 0 0 0 -1.36-2.62 8.023 8.023 0 1 1 .86 5.79 5.377 5.377 0 0 0 .58-2.32c-.01-.27-.04-.53-.08-.85z"/><path d="m38 34a1 1 0 0 1 -1-1h-2a3 3 0 0 0 2 2.816v1.184h2v-1.184a2.993 2.993 0 0 0 -1-5.816 1 1 0 1 1 1-1h2a3 3 0 0 0 -2-2.816v-1.184h-2v1.184a2.993 2.993 0 0 0 1 5.816 1 1 0 0 1 0 2z"/><path d="m20 24.873a4.014 4.014 0 0 0 2.873-2.873h2.127v-2h-3a1 1 0 0 0 -1 1 2 2 0 0 1 -2 2 1 1 0 0 0 -1 1v3h2z"/><path d="m56 25.873v2.127h2v-3a1 1 0 0 0 -1-1 2 2 0 0 1 -2-2 1 1 0 0 0 -1-1h-3v2h2.127a4.014 4.014 0 0 0 2.873 2.873z"/><path d="m55 40a2 2 0 0 1 2-2 1 1 0 0 0 1-1v-3h-2v2.127a4.014 4.014 0 0 0 -2.873 2.873h-2.127v2h3a1 1 0 0 0 1-1z"/></g></g></svg>