<?xml version="1.0"?>
<svg xmlns="http://www.w3.org/2000/svg" xmlns:xlink="http://www.w3.org/1999/xlink" xmlns:svgjs="http://svgjs.com/svgjs" version="1.1" width="512" height="512" x="0" y="0" viewBox="0 0 436.717 436.717" style="enable-background:new 0 0 512 512" xml:space="preserve" class=""><g>
<g xmlns="http://www.w3.org/2000/svg">
	<path d="M33.561,343.224c18.504,0,33.557-15.056,33.557-33.563c0-7.268-2.33-13.996-6.272-19.496l80.467-80.468   c5.678,4.401,12.793,7.03,20.514,7.03c7.723,0,14.838-2.629,20.516-7.027l45.695,45.694c-3.941,5.501-6.271,12.231-6.271,19.501   c0,18.502,15.053,33.556,33.555,33.556c18.506,0,33.563-15.054,33.563-33.556c0-7.271-2.332-14.004-6.275-19.506l101.045-101.051   c5.5,3.945,12.232,6.277,19.502,6.277c18.506,0,33.563-15.057,33.563-33.563s-15.057-33.562-33.563-33.562   c-18.502,0-33.555,15.056-33.555,33.562c0,7.27,2.33,14,6.271,19.502L274.824,247.609c-5.502-3.944-12.234-6.275-19.504-6.275   c-7.27,0-14.002,2.332-19.504,6.277l-45.98-45.982c3.506-5.301,5.553-11.646,5.553-18.463c0-18.502-15.055-33.555-33.563-33.555   c-18.502,0-33.555,15.053-33.555,33.555c0,6.816,2.047,13.159,5.551,18.459l-80.758,80.758c-5.502-3.943-12.234-6.275-19.504-6.275   C15.055,276.107,0,291.16,0,309.662C0,328.168,15.055,343.224,33.561,343.224z M380.605,127.054   c0-12.438,10.115-22.556,22.549-22.556c12.438,0,22.557,10.118,22.557,22.556s-10.119,22.557-22.557,22.557   c-4.227,0-8.184-1.172-11.568-3.205c-3.189-1.914-5.867-4.594-7.779-7.784C381.775,135.237,380.605,131.281,380.605,127.054z    M255.32,252.339c4.227,0,8.186,1.172,11.57,3.203c3.19,1.914,5.869,4.593,7.783,7.781c2.031,3.386,3.203,7.345,3.203,11.572   c0,12.434-10.119,22.55-22.557,22.55c-12.434,0-22.549-10.116-22.549-22.55c0-4.226,1.17-8.183,3.199-11.567   c1.914-3.19,4.592-5.87,7.779-7.784C247.135,253.511,251.094,252.339,255.32,252.339z M139.277,183.165   c0-12.434,10.115-22.549,22.549-22.549c12.438,0,22.557,10.115,22.557,22.549c0,3.766-0.932,7.316-2.57,10.441   c-1.736,3.309-4.266,6.138-7.338,8.227c-3.609,2.453-7.965,3.89-12.648,3.89c-4.684,0-9.037-1.438-12.646-3.892   c-3.072-2.09-5.6-4.92-7.334-8.229C140.209,190.478,139.277,186.929,139.277,183.165z M33.561,287.113   c4.227,0,8.186,1.172,11.57,3.203c3.189,1.915,5.867,4.594,7.781,7.783c2.029,3.384,3.199,7.339,3.199,11.563   c0,12.439-10.117,22.557-22.551,22.557c-12.438,0-22.555-10.118-22.555-22.557C11.006,297.228,21.123,287.113,33.561,287.113z" fill="#09316f" data-original="#000000" style=""/>
</g>
<g xmlns="http://www.w3.org/2000/svg">
</g>
<g xmlns="http://www.w3.org/2000/svg">
</g>
<g xmlns="http://www.w3.org/2000/svg">
</g>
<g xmlns="http://www.w3.org/2000/svg">
</g>
<g xmlns="http://www.w3.org/2000/svg">
</g>
<g xmlns="http://www.w3.org/2000/svg">
</g>
<g xmlns="http://www.w3.org/2000/svg">
</g>
<g xmlns="http://www.w3.org/2000/svg">
</g>
<g xmlns="http://www.w3.org/2000/svg">
</g>
<g xmlns="http://www.w3.org/2000/svg">
</g>
<g xmlns="http://www.w3.org/2000/svg">
</g>
<g xmlns="http://www.w3.org/2000/svg">
</g>
<g xmlns="http://www.w3.org/2000/svg">
</g>
<g xmlns="http://www.w3.org/2000/svg">
</g>
<g xmlns="http://www.w3.org/2000/svg">
</g>
</g></svg>
